<svg width="24" height="24" viewBox="0 0 24 24" fill="none" xmlns="http://www.w3.org/2000/svg">
<path d="M12.8487 14.0334H11.415V15.4429H12.8487V14.0334Z" fill="#FECF05"/>
<path d="M8.41252 10.5403C8.40732 10.5403 8.40201 10.54 8.39673 10.5396C7.36085 10.4491 6.38994 9.82574 5.66281 8.78435C4.88484 7.67042 4.45642 6.19347 4.45642 4.62557C4.45642 4.49739 4.56073 4.39319 4.68891 4.39319H6.89166C6.98591 4.39319 7.06442 4.4654 7.07222 4.55927C7.09486 4.8312 7.12313 5.10398 7.15632 5.36993C7.16271 5.42147 7.14668 5.47326 7.1123 5.51218C7.07788 5.55109 7.02845 5.57338 6.97649 5.57338H5.92637C5.86858 5.57338 5.81394 5.59866 5.7765 5.64275C5.73924 5.68673 5.72317 5.74481 5.73263 5.80172C5.89375 6.77214 6.22967 7.69475 6.63112 8.26959C7.08147 8.91463 7.57235 9.34467 8.05087 9.5132C8.09724 9.52955 8.13496 9.56397 8.15542 9.60865C8.21758 9.74439 8.2816 9.82866 8.34941 9.91792C8.41118 9.99924 8.47506 10.0834 8.54091 10.2126C8.5517 10.2338 8.56253 10.2549 8.57346 10.2759C8.6038 10.3346 8.59987 10.4051 8.56309 10.4599C8.52924 10.5104 8.4726 10.5403 8.41252 10.5403Z" fill="#F8B816"/>
<path d="M15.5871 10.5404C15.5271 10.5404 15.4704 10.5105 15.4366 10.46C15.3999 10.4051 15.3959 10.3346 15.4263 10.276C15.4372 10.2549 15.4481 10.2339 15.4589 10.2127C15.5246 10.0836 15.5886 9.99943 15.6504 9.91801C15.7182 9.82878 15.7822 9.74451 15.8443 9.60878C15.8648 9.56409 15.9025 9.52967 15.9489 9.51333C16.4272 9.34479 16.9182 8.91476 17.3686 8.26971C17.7701 7.69483 18.106 6.7723 18.2671 5.80192C18.2766 5.74493 18.2605 5.68692 18.2232 5.64283C18.1858 5.59885 18.1312 5.57351 18.0734 5.57351H17.0232C16.9712 5.57351 16.9218 5.55122 16.8874 5.5123C16.8531 5.47338 16.837 5.4216 16.8434 5.37006C16.8766 5.10413 16.9049 4.83136 16.9275 4.55939C16.9353 4.46552 17.0138 4.39331 17.1081 4.39331H19.3108C19.439 4.39331 19.5433 4.49755 19.5433 4.62569C19.5433 6.19366 19.1149 7.67058 18.337 8.78443C17.6098 9.82583 16.6389 10.4492 15.603 10.5397C15.5977 10.5401 15.5924 10.5404 15.5871 10.5404Z" fill="#F8B816"/>
<path d="M17.1684 3.08392C17.1158 3.03023 17.0439 3 16.9687 3H7.03129C6.95619 3 6.88426 3.03023 6.83167 3.08392C6.779 3.13764 6.75025 3.21016 6.7519 3.28526C6.80829 5.94764 7.36049 8.43698 8.30686 10.2949C8.93812 11.534 9.70661 12.4141 10.5477 12.8844H13.4523C14.2933 12.4141 15.0618 11.534 15.6931 10.2949C16.6395 8.43698 17.1917 5.94764 17.248 3.28526C17.2497 3.21013 17.221 3.13764 17.1684 3.08392Z" fill="#FECF05"/>
<path opacity="0.1" d="M9.05688 10.2949C8.11048 8.43698 7.55828 5.94764 7.50192 3.28526C7.50027 3.21016 7.52903 3.13764 7.58173 3.08392C7.63429 3.03023 7.70622 3 7.78131 3H7.03129C6.95619 3 6.88426 3.03023 6.83167 3.08392C6.779 3.13764 6.75025 3.21016 6.7519 3.28526C6.80829 5.94764 7.36049 8.43698 8.30686 10.2949C8.93813 11.534 9.70661 12.4141 10.5477 12.8844H11.2977C10.4567 12.4141 9.68815 11.534 9.05688 10.2949Z" fill="black"/>
<path d="M13.7652 16.6601V15.6121C13.7652 15.4712 13.651 15.3569 13.51 15.3569H10.4899C10.3489 15.3569 10.2346 15.4712 10.2346 15.6121V16.6601H13.7652Z" fill="#F8B816"/>
<path opacity="0.1" d="M11.2043 15.3569H10.4899C10.3489 15.3569 10.2346 15.4712 10.2346 15.6121V16.6601H10.9491V15.6121C10.9491 15.4712 11.0633 15.3569 11.2043 15.3569Z" fill="black"/>
<path d="M14.9075 20.0859V16.7454C14.9075 16.6458 14.826 16.5643 14.7264 16.5643H9.27369C9.17402 16.5643 9.09253 16.6458 9.09253 16.7454V20.0859H14.9075Z" fill="#A67C52"/>
<path d="M13.8432 19.0047C13.8432 19.0644 13.7943 19.1133 13.7345 19.1133H10.2656C10.2058 19.1133 10.1569 19.0644 10.1569 19.0047V17.6528C10.1569 17.5931 10.2058 17.5442 10.2656 17.5442H13.7345C13.7943 17.5442 13.8432 17.5931 13.8432 17.6528V19.0047Z" fill="#FECF05"/>
<path opacity="0.1" d="M11.0578 19.0047V17.6528C11.0578 17.5931 11.1067 17.5442 11.1665 17.5442H10.2656C10.2058 17.5442 10.1569 17.5931 10.1569 17.6528V19.0047C10.1569 19.0645 10.2058 19.1134 10.2656 19.1134H11.1665C11.1067 19.1133 11.0578 19.0644 11.0578 19.0047Z" fill="black"/>
<path d="M16.0497 20.8188C16.0497 20.9184 15.9682 20.9999 15.8685 20.9999H8.13136C8.03172 20.9999 7.9502 20.9184 7.9502 20.8188V20.1679C7.9502 20.0683 8.03172 19.9868 8.13136 19.9868H15.8685C15.9682 19.9868 16.0497 20.0683 16.0497 20.1679V20.8188Z" fill="#8C6239"/>
<path opacity="0.1" d="M8.84738 20.8188V20.1679C8.84738 20.0683 8.92891 19.9868 9.02854 19.9868H8.13136C8.03172 19.9868 7.9502 20.0683 7.9502 20.1679V20.8188C7.9502 20.9184 8.03172 20.9999 8.13136 20.9999H9.02854C8.92891 20.9999 8.84738 20.9184 8.84738 20.8188Z" fill="black"/>
<path d="M10.4095 12.8129V13.9119C10.4095 14.0198 10.4979 14.1082 10.6059 14.1082H13.3942C13.5022 14.1082 13.5906 14.0199 13.5906 13.9119V12.8129H10.4095Z" fill="#F8B816"/>
<path opacity="0.1" d="M11.2107 13.9119V12.8129H10.4095V13.9119C10.4095 14.0198 10.4979 14.1082 10.6059 14.1082H11.407C11.299 14.1081 11.2107 14.0198 11.2107 13.9119Z" fill="black"/>
<path d="M12 10.1825C13.4791 10.1825 14.6782 8.98401 14.6782 7.50565C14.6782 6.0273 13.4791 4.82886 12 4.82886C10.5208 4.82886 9.32178 6.0273 9.32178 7.50565C9.32178 8.98401 10.5208 10.1825 12 10.1825Z" fill="#F8B816"/>
<path d="M12.6977 8.70711C12.6725 8.70711 12.6472 8.70261 12.6229 8.69354L11.9999 8.45972L11.377 8.69351C11.3527 8.70258 11.3274 8.70708 11.3022 8.70708C11.2578 8.70708 11.2139 8.69323 11.1769 8.66644C11.119 8.62439 11.0862 8.55608 11.0893 8.48464L11.1192 7.82026L10.7043 7.30027C10.6597 7.24433 10.6461 7.16977 10.6683 7.10174C10.6904 7.03371 10.7452 6.98136 10.8142 6.96231L11.4555 6.78547L11.8221 6.23039C11.8616 6.1707 11.9283 6.13477 11.9999 6.13477C12.0714 6.13477 12.1382 6.1707 12.1776 6.23036L12.5442 6.78547L13.1856 6.96231C13.2546 6.98136 13.3094 7.03371 13.3315 7.10174C13.3537 7.16977 13.3401 7.24433 13.2955 7.30027L12.8806 7.82026L12.9105 8.48464C12.9136 8.55615 12.8808 8.62443 12.8229 8.66644C12.7859 8.69326 12.742 8.70711 12.6977 8.70711Z" fill="white"/>
<path d="M9.92526 6.92847H9.38487C9.34743 7.09876 9.32634 7.27507 9.323 7.45581H9.92526C10.0709 7.45581 10.1889 7.33776 10.1889 7.19214C10.1889 7.04652 10.0709 6.92847 9.92526 6.92847Z" fill="#A67C52"/>
<path d="M9.92528 7.69421H9.3291C9.34172 7.87558 9.37234 8.05193 9.41935 8.22156H9.92528C10.0709 8.22156 10.189 8.1035 10.189 7.95789C10.189 7.81227 10.0709 7.69421 9.92528 7.69421Z" fill="#A67C52"/>
<path d="M14.6769 7.45581C14.6735 7.27507 14.6525 7.09876 14.615 6.92847H14.0427C13.8971 6.92847 13.7791 7.04652 13.7791 7.19214C13.7791 7.33776 13.8971 7.45581 14.0427 7.45581H14.6769Z" fill="#A67C52"/>
<path d="M14.0427 7.69421C13.8971 7.69421 13.7791 7.81227 13.7791 7.95789C13.7791 8.1035 13.8971 8.22156 14.0427 8.22156H14.5806C14.6275 8.05193 14.6582 7.87558 14.6708 7.69421H14.0427Z" fill="#A67C52"/>
</svg>
